<svg width="30" height="30" viewBox="0 0 30 30" fill="none" xmlns="http://www.w3.org/2000/svg">
<path fill-rule="evenodd" clip-rule="evenodd" d="M2.5 7.5C2.5 6.17392 3.02678 4.90215 3.96447 3.96447C4.90215 3.02678 6.17392 2.5 7.5 2.5H22.5C23.8261 2.5 25.0979 3.02678 26.0355 3.96447C26.9732 4.90215 27.5 6.17392 27.5 7.5V22.5C27.5 23.8261 26.9732 25.0979 26.0355 26.0355C25.0979 26.9732 23.8261 27.5 22.5 27.5H7.5C6.17392 27.5 4.90215 26.9732 3.96447 26.0355C3.02678 25.0979 2.5 23.8261 2.5 22.5V7.5ZM7.5 5C6.83696 5 6.20107 5.26339 5.73223 5.73223C5.26339 6.20107 5 6.83696 5 7.5V22.5C5 23.163 5.26339 23.7989 5.73223 24.2678C6.20107 24.7366 6.83696 25 7.5 25H15V16.25H13.75C13.4185 16.25 13.1005 16.1183 12.8661 15.8839C12.6317 15.6495 12.5 15.3315 12.5 15C12.5 14.6685 12.6317 14.3505 12.8661 14.1161C13.1005 13.8817 13.4185 13.75 13.75 13.75H15V11.875C15 10.7147 15.4609 9.60188 16.2814 8.78141C17.1019 7.96094 18.2147 7.5 19.375 7.5H20.125C20.4565 7.5 20.7745 7.6317 21.0089 7.86612C21.2433 8.10054 21.375 8.41848 21.375 8.75C21.375 9.08152 21.2433 9.39946 21.0089 9.63388C20.7745 9.8683 20.4565 10 20.125 10H19.375C19.1288 10 18.885 10.0485 18.6575 10.1427C18.43 10.237 18.2233 10.3751 18.0492 10.5492C17.8751 10.7233 17.737 10.93 17.6427 11.1575C17.5485 11.385 17.5 11.6288 17.5 11.875V13.75H20.125C20.4565 13.75 20.7745 13.8817 21.0089 14.1161C21.2433 14.3505 21.375 14.6685 21.375 15C21.375 15.3315 21.2433 15.6495 21.0089 15.8839C20.7745 16.1183 20.4565 16.25 20.125 16.25H17.5V25H22.5C23.163 25 23.7989 24.7366 24.2678 24.2678C24.7366 23.7989 25 23.163 25 22.5V7.5C25 6.83696 24.7366 6.20107 24.2678 5.73223C23.7989 5.26339 23.163 5 22.5 5H7.5Z" fill="#CEABC1"/>
</svg>
