<svg width="30" height="30" viewBox="0 0 30 30" fill="none" xmlns="http://www.w3.org/2000/svg">
<path fill-rule="evenodd" clip-rule="evenodd" d="M4.37497 15C4.37497 12.8986 4.99812 10.8443 6.16561 9.09707C7.3331 7.34979 8.99249 5.98796 10.934 5.18378C12.8754 4.3796 15.0118 4.16919 17.0728 4.57916C19.1339 4.98912 21.027 6.00106 22.513 7.48699C23.9989 8.97292 25.0108 10.8661 25.4208 12.9272C25.8308 14.9882 25.6204 17.1245 24.8162 19.066C24.012 21.0075 22.6502 22.6669 20.9029 23.8344C19.1556 25.0019 17.1014 25.625 15 25.625C12.9898 25.6286 11.0203 25.0588 9.32247 23.9825C9.17145 23.887 9.0017 23.8249 8.82467 23.8006C8.64764 23.7762 8.46744 23.7901 8.29622 23.8412L4.69622 24.915L6.05247 21.7438C6.1313 21.5591 6.16451 21.3582 6.14928 21.1581C6.13405 20.9579 6.07083 20.7643 5.96497 20.5938C4.92238 18.9145 4.37154 16.9766 4.37497 15ZM15 1.875C7.75122 1.875 1.87497 7.75125 1.87497 15C1.87497 17.2975 2.46622 19.46 3.50622 21.3412L1.34997 26.3838C1.25665 26.6022 1.22749 26.8427 1.26592 27.0771C1.30434 27.3115 1.40876 27.5301 1.56694 27.7073C1.72513 27.8845 1.93052 28.013 2.15908 28.0776C2.38764 28.1423 2.62989 28.1405 2.85747 28.0725L8.48247 26.395C10.4663 27.5318 12.7135 28.1283 15 28.125C22.2487 28.125 28.125 22.2487 28.125 15C28.125 7.75125 22.2487 1.875 15 1.875ZM17.8662 17.7275L16.2225 18.885C15.3168 18.3639 14.4852 17.7236 13.75 16.9812C12.9606 16.193 12.2781 15.3046 11.72 14.3387L12.7637 13.4525C12.9812 13.268 13.1291 13.0146 13.1827 12.7345C13.2364 12.4544 13.1926 12.1643 13.0587 11.9125L11.7287 9.4125C11.6402 9.24647 11.5154 9.10256 11.3635 8.9915C11.2116 8.88044 11.0366 8.8051 10.8516 8.7711C10.6665 8.73709 10.4762 8.7453 10.2948 8.7951C10.1133 8.84491 9.94547 8.93503 9.80372 9.05875L9.40872 9.4025C8.45997 10.23 7.89872 11.59 8.36372 12.9675C9.11185 15.1464 10.3499 17.1246 11.9825 18.75C14.2487 21.0163 16.5512 21.9088 17.8987 22.2563C18.9837 22.535 20.01 22.1612 20.7337 21.5713L21.4725 20.9688C21.6282 20.8417 21.7511 20.6791 21.8306 20.4945C21.91 20.3099 21.9439 20.1089 21.9292 19.9085C21.9144 19.708 21.8516 19.5141 21.746 19.3431C21.6404 19.1721 21.4951 19.0291 21.3225 18.9263L19.225 17.6762C19.0176 17.5525 18.7787 17.4915 18.5374 17.5006C18.296 17.5097 18.0625 17.5885 17.865 17.7275H17.8662Z" fill="#CEABC1"/>
</svg>
